<svg viewBox="0 0 96 96" xml:space="preserve" xmlns="http://www.w3.org/2000/svg"><g fill="none" stroke="#ff5ec0" stroke-miterlimit="10" stroke-width="2" class="stroke-000000"><path d="M59.16 34.314c0 6.162-4.996 11.16-11.16 11.16a11.135 11.135 0 0 1-8.351-3.757 11.118 11.118 0 0 1-2.81-7.403c0-6.164 4.997-11.161 11.16-11.161 6.165 0 11.161 4.997 11.161 11.161z"></path><path d="M67.07 63.461a25.406 25.406 0 0 0-.236-.466C63.281 56.221 56.181 51.597 48 51.597c-11.735 0-21.25 9.515-21.25 21.25h42.5c0-2.035-.286-4.006-.82-5.869" stroke-linecap="round" stroke-linejoin="round"></path></g></svg>