<svg viewBox="0 0 500 500" xml:space="preserve" xmlns="http://www.w3.org/2000/svg" enable-background="new 0 0 500 500"><path d="m500 250-26.784 29.409 18.32 35.309-33.487 21.454 8.483 38.858-37.913 12.025-1.841 39.723-39.734 1.841-12.024 37.924-38.859-8.494-21.454 33.498-35.298-18.321L250 500l-29.419-26.774-35.299 18.321-21.464-33.498-38.859 8.494-12.014-37.924-39.723-1.841-1.851-39.734-37.913-12.023 8.483-38.849-33.488-21.454 18.321-35.309L0 250l26.774-29.409-18.321-35.309 33.488-21.453-8.483-38.859 37.913-12.014 1.851-39.734 39.734-1.841 12.014-37.913 38.859 8.484 21.453-33.489 35.299 18.321L250 0l29.409 26.784 35.309-18.321 21.454 33.499 38.858-8.494 12.014 37.913 39.734 1.851 1.841 39.734 37.913 12.014-8.483 38.859 33.487 21.443-18.32 35.309z" fill="#fdc7e8" class="fill-9dd2d8"></path><path d="M317.541 306.701c-9.573 0-17.334 7.768-17.334 17.345 0 9.572 7.761 17.329 17.334 17.329 9.572 0 17.328-7.757 17.328-17.329 0-9.577-7.756-17.345-17.328-17.345zM199.564 306.701c-9.577 0-17.334 7.768-17.334 17.345 0 9.572 7.757 17.329 17.334 17.329 9.572 0 17.329-7.757 17.329-17.329.001-9.577-7.756-17.345-17.329-17.345zM320.893 303.914l22.532-69.778c-.702.036-1.394.107-2.106.107-9.089 0-17.482-2.96-24.332-7.914h-23.016l1.978-23.061h5.143c-.911-3.418-1.445-6.999-1.445-10.702 0-1.872.168-3.703.407-5.514H182.322l-8.271-27.969H125.314v14.755h34.79l13.087 44.261 25.248 85.815h122.454zm-41.698-13.142h-34.16l-1.953-22.786h38.061l-1.948 22.786zm2.741-32.013h-39.642l-1.984-23.204h43.609l-1.983 23.204zm11.247-23.204h33.493l-6.897 23.204h-28.585l1.989-23.204zm-2.778 32.43h26.632l-6.76 22.786h-21.825l1.953-22.786zm-3.723-64.717-1.973 23.061h-45.187l-1.974-23.061h49.134zm-50.903 87.504h-24.76l-6.328-22.786h29.14l1.948 22.786zm-48.66-87.504h41.168l1.974 23.061h-36.326l-6.816-23.061zm43.93 32.287 1.988 23.204h-30.909l-6.454-23.204h35.375z" fill="#ffffff" class="fill-484b4d"></path><path d="M374.68 192.495c0 18.697-15.142 33.874-33.844 33.874-18.708 0-33.865-15.177-33.865-33.874 0-18.707 15.157-33.864 33.865-33.864 18.702-.001 33.844 15.157 33.844 33.864z" fill="#fc5151" class="fill-fc6e51"></path><path d="m361.211 180.644-3.998-4.242-21.464 17.629-9.816-7.233-3.962 4.263 12.131 14.088 2.13 2.493 2.228-2.411z" fill="#f7f2f2" class="fill-f4f8f8"></path></svg>